<svg xmlns="http://www.w3.org/2000/svg" viewBox="0 0 64 64">
  <!-- Black background with squircle shape and white border -->
  <rect x="2" y="2" width="60" height="60" fill="#000000" rx="16" ry="16" stroke="#FFFFFF" stroke-width="2"/>
  
  <!-- Pickaxe - positioned more toward bottom-right of top-left area -->
  <g transform="translate(12, 14) scale(0.038, 0.038)">
    <path fill="#FFFFFF" d="M366.082,195.332l-0.495-0.538c-22.455-24.592-48.208-48.927-78.729-74.395c-4.614-3.851-25.51-20.384-26.486-21.215
		s-1.989-1.555-1.775-2.666c0.254-1.319,0.624-2.743,1.06-4.243c0.388-1.336,0.788-2.719,1.094-4.184
		c0.557-2.661,0.91-5.032,1.08-7.251l0.01-0.12c0.19-2.474,0.546-7.078-2.327-10.145c-1.008-1.074-2.857-2.356-5.955-2.356
		c-2.282,0-4.521,0.689-5.857,1.103l-0.147,0.046c-3.634,1.114-6.873,2.817-9.29,4.177c-1.399,0.787-2.796,1.614-4.146,2.46
		c-0.404,0.253-0.81,0.53-1.218,0.812c-1.05,0.725-1.545,1.392-3.079,0.084c-2.122-1.867-25.89-22.144-89.825-51.953
		c-10.255-4.781-20.893-9.172-31.615-13.05C97.866,8.096,86.273,4.504,72.946,0.918l-0.407-0.11C70.99,0.389,69.311,0,67.54,0
		C64,0,61.036,1.63,59.188,4.59c-1.523,2.441-1.906,5.412-1.049,8.148c0.896,2.866,3.021,5.201,5.825,6.408l7.161,3.083
		c28.388,12.212,56.542,29.121,86.072,51.693c10.122,7.738,19.275,15.194,27.981,22.795c4.114,3.592,8.22,7.237,12.203,10.835
		c0.354,0.318,3.372,3.191,3.372,3.191L17.508,328.184c-5.761,6.833-8.54,14.704-8.039,22.76c0.479,7.696,4.049,15.149,9.796,20.446
		c5.617,5.177,12.942,8.026,20.628,8.026c0.962,0,1.936-0.046,2.892-0.138c8.684-0.831,16.688-5.458,21.96-12.695
		c1.593-2.185,156.703-215.057,165.4-227.015c24.118,24.903,46.882,51.772,67.655,79.86c4.086,5.524,11.317,15.82,11.644,16.317
		c1.397,2.141,2.982,4.565,5.224,6.351c1.693,1.346,3.663,2.059,5.697,2.059c3.176,0,5.756-1.713,7.42-3.002l37.582-29.109
		c4.483-3.896,4.615-7.84,4.615-7.84C370.266,199.869,367.651,197.033,366.082,195.332z"/>
  </g>
  
  <!-- Bitcoin Symbol - centered -->
  <g transform="rotate(15, 36, 36)">
    <g transform="translate(36, 36) scale(0.30)">
      <path fill="#F7931A" d="M63.04,39.74c-4.27,17.16-21.61,27.58-38.77,23.31C7.12,58.78-3.3,41.44,0.97,24.28,5.24,7.12,22.58-3.3,39.74,0.97,56.9,5.24,67.32,22.58,63.04,39.74z"/>
      <path fill="#FFFFFF" d="M46.11,27.44c0.63-4.21-2.58-6.48-6.97-7.99l1.43-5.71-3.48-0.87-1.39,5.56c-0.91-0.23-1.85-0.44-2.79-0.66l1.4-5.61-3.48-0.87-1.43,5.71c-0.75-0.17-1.49-0.34-2.2-0.52l0-0.02-4.8-1.2-0.93,3.72s2.58,0.59,2.53,0.63c1.41,0.35,1.66,1.29,1.62,2.03l-1.62,6.52c0.1,0.02,0.22,0.06,0.36,0.11l-0.37-0.09-2.28,9.13c-0.17,0.43-0.61,1.07-1.59,0.83,0.03,0.05-2.53-0.63-2.53-0.63l-1.73,3.98,4.53,1.13c0.84,0.21,1.67,0.43,2.48,0.64l-1.44,5.79,3.48,0.87,1.43-5.72c0.95,0.26,1.87,0.49,2.77,0.72l-1.42,5.69,3.48,0.87,1.44-5.78c5.95,1.13,10.42,0.67,12.3-4.71,1.52-4.33-0.07-6.83-3.21-8.46,2.28-0.53,4-2.04,4.46-5.16zM38.28,36.58c-1.08,4.33-8.37,1.99-10.73,1.4l1.91-7.67c2.36,0.59,9.95,1.76,8.82,6.27zM39.36,27.39c-0.98,3.94-7.05,1.94-9.02,1.45l1.74-6.96c1.97,0.49,8.31,1.41,7.28,5.51z"/>
    </g>
  </g>
</svg>
